<?xml version="1.0" encoding="utf-8"?>
<!-- Generator: Adobe Illustrator 25.4.1, SVG Export Plug-In . SVG Version: 6.00 Build 0)  -->
<svg version="1.1" id="Layer_1" xmlns="http://www.w3.org/2000/svg" xmlns:xlink="http://www.w3.org/1999/xlink" x="0px" y="0px"
	 viewBox="0 0 288 288" style="enable-background:new 0 0 288 288;" xml:space="preserve">
<style type="text/css">
	.st0{fill-rule:evenodd;clip-rule:evenodd;fill:url(#SVGID_1_);}
	.st1{fill:#3E4349;}
</style>
<g>
	<radialGradient id="SVGID_1_" cx="144" cy="144" r="188.1086" gradientUnits="userSpaceOnUse">
		<stop  offset="0.3226" style="stop-color:#FBFBFB"/>
		<stop  offset="0.8061" style="stop-color:#F1F1F1"/>
		<stop  offset="1" style="stop-color:#EBEBEB"/>
	</radialGradient>
	<circle class="st0" cx="144" cy="144" r="144"/>
	<g>
		<path class="st1" d="M144,0C64.46,0,0,64.46,0,144c0,79.53,64.46,144,144,144c79.53,0,144-64.47,144-144C288,64.46,223.53,0,144,0
			z M154.87,265.75v-9.67c0-6.01-4.86-10.87-10.87-10.87s-10.87,4.86-10.87,10.87v9.67c-58.87-5.21-105.86-52.31-110.91-111.22h9.37
			c6,0,10.86-4.86,10.86-10.87c0-6.01-4.86-10.87-10.86-10.87h-9.32c5.36-58.6,52.22-105.35,110.86-110.55v9
			c0,6.01,4.86,10.87,10.87,10.87s10.87-4.86,10.87-10.87v-9c58.64,5.2,105.5,51.95,110.86,110.55h-9.32
			c-6,0-10.86,4.86-10.86,10.87c0,6.01,4.86,10.87,10.86,10.87h9.37C260.73,213.44,213.74,260.54,154.87,265.75z"/>
		<path class="st1" d="M208.74,73.85l-64.38,67.45c-0.12,0-0.24-0.02-0.37-0.02c-0.81,0-1.59,0.08-2.35,0.23L87.77,100.8
			c-3.57-2.68-8.68-1.99-11.4,1.61c-2.72,3.57-2.02,8.7,1.59,11.42l53.86,40.7c0.52,6.27,5.77,11.21,12.17,11.21
			c6.75,0,12.23-5.48,12.23-12.23c0-0.32-0.02-0.64-0.05-0.95l64.36-67.46c3.1-3.27,2.99-8.41-0.27-11.53
			C217.02,70.45,211.86,70.6,208.74,73.85z"/>
	</g>
</g>
</svg>
