<?xml version="1.0" encoding="utf-8"?>
<!-- Generator: Adobe Illustrator 25.4.1, SVG Export Plug-In . SVG Version: 6.00 Build 0)  -->
<svg version="1.1" id="Camada_1" xmlns="http://www.w3.org/2000/svg" xmlns:xlink="http://www.w3.org/1999/xlink" x="0px" y="0px"
	 viewBox="0 0 1080 1080" style="enable-background:new 0 0 1080 1080;" xml:space="preserve">
<style type="text/css">
	.st0{fill:#CED6E4;}
	.st1{opacity:0.5;}
</style>
<g>
	<rect x="529.8" class="st0" width="20.39" height="126.33"/>
	<rect x="529.8" class="st0" width="20.39" height="126.33"/>
	<rect x="529.8" y="953.66" class="st0" width="20.39" height="126.34"/>
	<rect x="529.8" class="st0" width="20.39" height="126.33"/>
	<g>
		<rect x="953.67" y="529.8" class="st0" width="126.33" height="20.39"/>
		<rect y="529.8" class="st0" width="126.33" height="20.39"/>
	</g>
	<g>						
			<rect x="235.59" y="941.1" transform="matrix(0.5061 -0.8625 0.8625 0.5061 -672.9297 727.5612)" class="st0" width="126.33" height="20.39"/>
		
			<rect x="718.08" y="118.5" transform="matrix(0.506 -0.8625 0.8625 0.506 274.9163 737.4206)" class="st0" width="126.33" height="20.39"/>
		<g>
			
				<rect x="941.11" y="718.08" transform="matrix(0.506 -0.8625 0.8625 0.506 -203.9252 1206.424)" class="st0" width="20.39" height="126.33"/>
			
				<rect x="118.51" y="235.58" transform="matrix(0.506 -0.8626 0.8626 0.506 -194.106 258.6046)" class="st0" width="20.39" height="126.33"/>
		</g>
	</g>
	<g>
		
			<rect x="884.6" y="282.63" transform="matrix(0.8552 -0.5183 0.5183 0.8552 -14.5394 533.6036)" class="st0" width="126.34" height="20.39"/>
		
			<rect x="884.6" y="282.63" transform="matrix(0.8552 -0.5183 0.5183 0.8552 -14.5394 533.6036)" class="st0" width="126.34" height="20.39"/>
		<polygon class="st0" points="83.5,828.64 72.93,811.2 180.97,745.71 191.53,763.15 		"/>
		
			<rect x="884.6" y="282.63" transform="matrix(0.8552 -0.5183 0.5183 0.8552 -14.5394 533.6036)" class="st0" width="126.34" height="20.39"/>
		<g>
			
				<rect x="776.98" y="884.6" transform="matrix(0.8552 -0.5183 0.5183 0.8552 -377.2622 545.2836)" class="st0" width="20.39" height="126.33"/>
			
				<rect x="282.63" y="69.07" transform="matrix(0.8551 -0.5184 0.5184 0.8551 -26.1285 170.9696)" class="st0" width="20.39" height="126.33"/>
		</g>
	</g>
</g>
</svg>
