<?xml version="1.0" encoding="utf-8"?>
<!-- Generator: Adobe Illustrator 25.4.1, SVG Export Plug-In . SVG Version: 6.00 Build 0)  -->
<svg version="1.1" id="Camada_1" xmlns="http://www.w3.org/2000/svg" xmlns:xlink="http://www.w3.org/1999/xlink" x="0px" y="0px"
	 viewBox="0 0 1122 1122" style="enable-background:new 0 0 1122 1122;" xml:space="preserve">
<style type="text/css">
	.st0{fill:none;stroke:#6666FE;stroke-width:50;stroke-miterlimit:10;}
</style>
<g id="Object">
	<g>
		<g>
			<path class="st0" d="M1091.5,606.5c1.7-20.6,2.4-41.6,1.7-62.6c-0.6-20.5-2.5-40.7-5.5-60.5l-105.4-17.5l-35.7-99.7l70.2-80.5
				c-21.3-35.4-46.6-68.1-75.3-97.4l-95.6,48l-87.6-59.6l9.5-106.6C731.4,54.8,693,43.3,653.1,36.4l-49.6,94.8l-106,2.5l-54.4-92.2
				c-40.7,9.3-79.7,23.1-116.2,41l15.6,105.8l-84.2,64.4l-98.1-42.4c-26.9,30.8-50.4,64.8-69.7,101.4l74.7,76.3l-30.1,101.5
				L30.8,513.3c-1.9,21-2.7,42.5-2,64.3c0.7,19.9,2.5,39.4,5.2,58.7L139.5,654l35.4,99.8l-70.7,80.3c21.4,35.5,46.6,68.4,75.3,97.9
				l95.7-47.7l87.4,59.8l-9.9,106.6c37.5,15.9,77,27.8,118.1,34.8l49.4-95.1l105.9-2.9l54.6,92.1c40.7-9.5,79.6-23.5,116.1-41.5
				l-15.9-105.8l83.9-64.8l98.2,42.1c26.9-31,50.4-65.1,69.5-101.7l-75.1-76l29.7-101.8L1091.5,606.5z M381.6,718.2
				c-86.7-99.3-77.1-249.8,22-336.6c98.8-87.3,249.6-77.6,336.5,21.4c87.4,99.2,77.4,250.1-21.7,337
				C619.6,826.8,468.8,817.6,381.6,718.2z"/>
		</g>
	</g>
</g>
</svg>
